<?xml version="1.0"?>
<svg width="1318" height="800" xmlns="http://www.w3.org/2000/svg" xmlns:svg="http://www.w3.org/2000/svg">
 <defs>
  <linearGradient id="a" x1="-45.25%" x2="97.789%" y1="-88.077%" y2="100%">
   <stop offset="0%" stop-color="#FF52C1"/>
   <stop offset="4.09%" stop-color="#F952C5"/>
   <stop offset="100%" stop-color="#9952FF" stop-opacity="0"/>
  </linearGradient>
  <linearGradient id="b" x1="-64.06%" x2="97.789%" y1="-121.906%" y2="100%">
   <stop offset="0%" stop-color="#FF52C1"/>
   <stop offset="4.09%" stop-color="#F952C5"/>
   <stop offset="100%" stop-color="#9952FF" stop-opacity="0"/>
  </linearGradient>
  <linearGradient id="d" x1="21.681%" x2="145.861%" y1="5.006%" y2="145.591%">
   <stop offset="0%" stop-color="#FF52C1"/>
   <stop offset="100%" stop-color="#9952FF"/>
  </linearGradient>
  <linearGradient id="e" x1="6.375%" x2="91.754%" y1="-15.195%" y2="105.701%">
   <stop offset="0%" stop-color="#FF52C1"/>
   <stop offset="100%" stop-color="#9952FF"/>
  </linearGradient>
 </defs>
 <g class="layer">
  <title>Layer 1</title>
  <g fill="none" fill-rule="evenodd" id="svg_1">
   <path d="m0,0l409.22,0l425.6,376l0,156.83l-834.82,-532.83z" fill="url(#a)" id="svg_2" transform="matrix(-1 0 0 1 834.817 0)"/>
   <path d="m0,367l641.15,0.14l416.15,306.16l0,127.7l-1057.3,-434z" fill="url(#b)" id="svg_3" transform="rotate(180 528.65 584)"/>
   <rect fill="url(#d)" height="38" id="svg_5" opacity="0.56" rx="3" transform="rotate(45 1107.87 708.87)" width="38" x="1088.87" y="689.87"/>
   <rect fill="url(#d)" height="56" id="svg_6" opacity="0.5" rx="3" transform="rotate(45 1279.598 103.598)" width="56" x="1251.6" y="75.6"/>
   <rect fill="url(#d)" height="32" id="svg_7" opacity="0.56" rx="3" transform="rotate(45 934.627 63.627)" width="32" x="918.63" y="47.63"/>
   <rect fill="url(#d)" height="32" id="svg_8" opacity="0.56" rx="3" transform="rotate(45 703.627 186.627)" width="32" x="687.63" y="170.63"/>
   <rect fill="url(#d)" height="17" id="svg_9" opacity="0.39" rx="1" transform="rotate(45 1237.02 606.02)" width="17" x="1228.52" y="597.52"/>
   <path d="m91.48,739.48l0,-16.5a5,5 0 0 1 10,0l0,16.5l16.5,0a5,5 0 0 1 0,10l-16.5,0l0,16.5a5,5 0 1 1 -10,0l0,-16.5l-16.5,0a5,5 0 1 1 0,-10l16.5,0z" fill="url(#e)" id="svg_10" opacity="0.21" transform="rotate(45 96.477 744.477)"/>
  </g>
 </g>
</svg>